# xmcd
#
# Track frame offsets:
#	150
#	20750
#	33460
#
# Disc length: 718 seconds
#
# Revision: 1
# Processed by: cddbd v1.5.1PL0 Copyright (c) Steve Scherf et al.
# Submitted via: CDex 1.50Beta5
#
DISCID=1f02cc03
DTITLE=Paris Match - 太陽の接吻
DYEAR=2003
DGENRE=Pop
TTITLE0=太陽の接吻
TTITLE1=Hello Beautiful Day
TTITLE2=太陽の接吻（Instrumental)
EXTD=
EXTT0=
EXTT1=
EXTT2=
PLAYORDER=
